<svg width="376" height="120" viewBox="0 0 376 120" fill="none" xmlns="http://www.w3.org/2000/svg">
<rect x="1" y="1" width="374" height="118" rx="9" stroke="white" stroke-width="2"/>
<path d="M315.703 46.4888C309.058 46.4888 303.545 50.3364 301.099 54.0083C299.351 49.0231 295.152 46.4888 289.117 46.4888C282.883 46.4888 277.745 49.7907 275.609 52.2233C274.67 50.3179 273.268 48.8982 271.493 47.9224C269.495 46.7478 266.979 46.1743 264.052 46.1743C262.438 46.1743 260.889 46.4056 259.436 46.8033C254.248 47.7744 250.072 50.9469 248.028 54.0083C246.28 49.0231 242.081 46.4888 236.045 46.4888C229.4 46.4888 223.975 50.2486 222.139 52.6996V47.5432H208.673V89.7839H222.139V62.4944C223.541 60.7463 226.075 58.3832 229.659 58.3832C233.77 58.3832 235.259 60.8342 235.259 64.0667V89.7793H248.726V62.4944C249.697 61.1949 251.399 59.5624 253.711 58.804C254.155 58.6745 254.618 58.5681 255.099 58.4757C255.496 58.4155 255.908 58.3832 256.338 58.3832C259.566 58.3832 261.217 59.9648 261.739 62.2585V89.7839H261.934H275.211H275.317V62.3649C276.737 60.6307 279.234 58.3832 282.735 58.3832C286.846 58.3832 288.331 60.8342 288.331 64.0667V89.7793H301.797V62.4944C303.111 60.7463 305.733 58.3832 309.405 58.3832C313.428 58.3832 315 60.8342 315 64.0667V89.7793H328.384V59.174C328.384 50.5168 323.487 46.4888 315.703 46.4888ZM191.608 89.7839H205.075V47.5432H191.608V74.8281C190.036 76.8398 187.409 78.9393 183.561 78.9393C179.187 78.9393 176.564 77.1912 176.564 72.1181V47.5432H163.093V77.6306C163.093 85.4137 167.38 90.8383 176.999 90.8383C184.084 90.8383 188.981 87.689 191.603 84.7154V89.7839H191.608ZM146.505 65.209C146.505 60.048 143.795 58.3878 139.508 58.3878C135.572 58.3878 132.95 60.5752 131.373 62.499V89.7885H117.907V31.4498H131.373V52.7042C133.912 49.7306 138.897 46.4934 145.978 46.4934C155.597 46.4934 159.972 51.9134 159.972 59.7012V89.7885H146.505V65.209Z" fill="white"/>
<path fill-rule="evenodd" clip-rule="evenodd" d="M73.5525 59.8735L102.72 30.7065C112.399 41.7175 111.996 58.4954 101.503 69.0209V89.6371H71.7026V89.6325C71.6148 89.6325 71.5281 89.6337 71.4414 89.6348C71.3546 89.636 71.2679 89.6371 71.1801 89.6371C54.4346 89.6371 40.8615 76.0641 40.8615 59.3186C40.8615 56.7196 41.1898 54.1992 41.8049 51.7898C42.3737 48.4832 39.7192 43.1696 37 39.6781C41.3933 40.1822 47.8122 39.8446 49.7823 37.8421C55.267 32.3805 62.8328 29 71.1847 29C79.1667 29 86.4226 32.0938 91.8333 37.1346L92.2819 37.8329L71.8969 58.2179C71.439 58.6758 71.439 59.4157 71.8969 59.8735C72.1235 60.1001 72.4241 60.2157 72.7247 60.2157C73.0253 60.2157 73.3259 60.1001 73.5525 59.8735ZM54.601 44.9998C55.2577 46.5213 56.7653 47.585 58.5226 47.585C60.8811 47.585 62.7911 45.6704 62.7865 43.3165C62.7865 40.958 60.8765 39.048 58.518 39.048C57.7226 39.048 56.9827 39.27 56.3445 39.6492C56.3583 39.6492 56.3722 39.6469 56.3861 39.6446C56.4 39.6423 56.4138 39.64 56.4277 39.64C57.7041 39.64 58.74 40.6759 58.74 41.9523C58.74 43.2286 57.7041 44.2645 56.4277 44.2645C55.4565 44.2645 54.6288 43.668 54.2865 42.8217C54.2865 42.8408 54.2841 42.8587 54.2817 42.876C54.2794 42.8921 54.2773 42.9078 54.2773 42.9234C54.268 43.0297 54.2634 43.136 54.2588 43.2422C54.2634 43.8619 54.3883 44.4541 54.601 44.9998Z" fill="white"/>
<path d="M342.885 59.3313L341.381 56.621C342.078 56.3776 342.852 55.6917 342.852 54.4085C342.852 53.0367 341.923 51.9525 340.286 51.9525H336.591V59.3313H338.494V56.8533H339.467L340.706 59.3313H342.885ZM339.998 55.1939H338.494V53.6119H339.998C340.507 53.6119 340.916 53.8885 340.916 54.3974C340.916 54.9173 340.507 55.1939 339.998 55.1939Z" fill="white"/>
<path fill-rule="evenodd" clip-rule="evenodd" d="M345.49 49.6002C343.88 47.9908 341.703 47.0914 339.384 47.0914C337.065 47.0914 334.888 47.9908 333.279 49.6002C331.669 51.2096 330.77 53.387 330.77 55.7064C330.77 58.0258 331.669 60.2032 333.279 61.8126C334.888 63.422 337.065 64.3213 339.384 64.3213C341.703 64.3213 343.88 63.422 345.49 61.8126C347.099 60.2032 347.998 58.0258 347.998 55.7064C348.045 53.4343 347.146 51.2569 345.49 49.6002ZM332.947 55.7537C332.947 59.3038 335.834 62.1913 339.384 62.1913C342.934 62.1913 345.821 59.3038 345.821 55.7537C345.821 52.2036 342.934 49.3162 339.384 49.3162C335.834 49.3162 332.947 52.2036 332.947 55.7537Z" fill="white"/>
</svg>
