<svg width="361" height="103" viewBox="0 0 361 103" fill="none" xmlns="http://www.w3.org/2000/svg">
<path d="M323.511 20.3005C315.797 20.3005 309.398 24.7667 306.559 29.029C304.529 23.2422 299.655 20.3005 292.65 20.3005C285.414 20.3005 279.45 24.1333 276.97 26.9569C275.88 24.7453 274.254 23.0973 272.192 21.9646C269.873 20.6011 266.953 19.9355 263.555 19.9355C261.682 19.9355 259.883 20.2039 258.198 20.6656C252.175 21.7928 247.328 25.4753 244.955 29.029C242.926 23.2422 238.052 20.3005 231.046 20.3005C223.332 20.3005 217.036 24.6648 214.905 27.5098V21.5244H199.273V70.5562H214.905V38.8794C216.531 36.8502 219.473 34.1072 223.633 34.1072C228.405 34.1072 230.134 36.9522 230.134 40.7045V70.5509H245.765V38.8794C246.893 37.3709 248.868 35.476 251.552 34.5956C252.068 34.4453 252.604 34.3219 253.163 34.2145C253.624 34.1447 254.102 34.1072 254.601 34.1072C258.348 34.1072 260.265 35.943 260.871 38.6056V70.5562H261.097H276.508H276.632V38.7291C278.28 36.716 281.178 34.1072 285.242 34.1072C290.014 34.1072 291.737 36.9522 291.737 40.7045V70.5509H307.369V38.8794C308.894 36.8502 311.937 34.1072 316.2 34.1072C320.87 34.1072 322.695 36.9522 322.695 40.7045V70.5509H338.23V35.0251C338.23 24.9761 332.545 20.3005 323.511 20.3005ZM179.465 70.5562H195.096V21.5244H179.465V53.1959C177.64 55.531 174.59 57.9681 170.124 57.9681C165.046 57.9681 162.002 55.939 162.002 50.0503V21.5244H146.365V56.449C146.365 65.4834 151.341 71.7801 162.507 71.7801C170.731 71.7801 176.416 68.1245 179.459 64.6728V70.5562H179.465ZM127.11 42.0304C127.11 36.0397 123.964 34.1125 118.988 34.1125C114.42 34.1125 111.376 36.6516 109.546 38.8847V70.5616H93.914V2.84363H109.546V27.5152C112.493 24.0635 118.28 20.3059 126.498 20.3059C137.664 20.3059 142.742 26.5973 142.742 35.6371V70.5616H127.11V42.0304Z" fill="#FF6C00"/>
<path d="M76.2854 1.98081L42.4291 35.8371C42.166 36.1001 41.8171 36.2343 41.4682 36.2343C41.1193 36.2343 40.7703 36.1001 40.5073 35.8371C39.9759 35.3057 39.9759 34.4468 40.5073 33.9153L64.1697 10.253L63.649 9.4424C57.3684 3.59123 48.9459 0 39.6806 0C29.9859 0 21.2038 3.92404 14.8373 10.2637C12.5505 12.5881 5.09965 12.9799 0 12.3948C3.15641 16.4477 6.23767 22.6156 5.5774 26.4538C4.86345 29.2505 4.48232 32.1761 4.48232 35.1929C4.48232 54.6307 20.2375 70.3859 39.6753 70.3859C39.8792 70.3859 40.0779 70.3805 40.2818 70.3805V70.3859H74.8736V46.4551C87.0537 34.2374 87.5207 14.7621 76.2854 1.98081Z" fill="#FF6C00"/>
<path d="M24.9828 21.5729C22.9429 21.5729 21.1929 20.3382 20.4307 18.5721C20.1838 17.9387 20.0388 17.2516 20.0334 16.5323C20.0388 16.4088 20.0442 16.2853 20.0549 16.1619C20.0549 16.1243 20.0657 16.0867 20.0657 16.0438C20.4629 17.0261 21.4238 17.7186 22.5511 17.7186C24.0326 17.7186 25.2351 16.5162 25.2351 15.0346C25.2351 13.553 24.0326 12.3506 22.5511 12.3506C22.5189 12.3506 22.4866 12.3613 22.4544 12.3613C23.1952 11.9211 24.0541 11.6635 24.9774 11.6635C27.7151 11.6635 29.9321 13.8805 29.9321 16.6182C29.9375 19.3505 27.7205 21.5729 24.9828 21.5729Z" fill="white"/>
<path d="M355.063 35.2078L353.317 32.0616C354.126 31.7791 355.025 30.983 355.025 29.4934C355.025 27.9011 353.946 26.6426 352.046 26.6426H347.757V35.2078H349.966V32.3313H351.096L352.534 35.2078H355.063ZM351.712 30.4051H349.966V28.5688H351.712C352.303 28.5688 352.778 28.8899 352.778 29.4806C352.778 30.0841 352.303 30.4051 351.712 30.4051Z" fill="#FF6C00"/>
<path fill-rule="evenodd" clip-rule="evenodd" d="M358.086 23.9121C356.218 22.044 353.691 21 350.999 21C348.307 21 345.78 22.044 343.912 23.9121C342.044 25.7802 341 28.3077 341 31C341 33.6923 342.044 36.2198 343.912 38.0879C345.78 39.956 348.307 41 350.999 41C353.691 41 356.218 39.956 358.086 38.0879C359.954 36.2198 360.998 33.6923 360.998 31C361.053 28.3626 360.009 25.8352 358.086 23.9121ZM343.527 31.0549C343.527 35.1758 346.879 38.5275 350.999 38.5275C355.119 38.5275 358.471 35.1758 358.471 31.0549C358.471 26.9341 355.119 23.5824 350.999 23.5824C346.879 23.5824 343.527 26.9341 343.527 31.0549Z" fill="#FF6C00"/>
<path d="M22.2568 97.6643V84.2049H27.099V80.2998H12.9107V84.2049H17.779V97.6643H22.2568ZM40.7633 97.6643V88.7087C40.7633 86.3917 39.4616 84.7776 36.5979 84.7776C34.4892 84.7776 33.0052 85.7409 32.2503 86.626V80.2998H28.2411V97.6643H32.2503V89.5418C32.7189 88.969 33.4999 88.3182 34.6714 88.3182C35.9471 88.3182 36.7541 88.8128 36.7541 90.3488V97.6643H40.7633ZM48.8012 97.9767C50.7277 97.9767 52.8104 97.43 54.06 96.3106L52.3158 93.6811C51.5868 94.358 50.1289 94.7485 49.2438 94.7485C47.4214 94.7485 46.3801 93.8113 46.0937 92.6919H55.0493V91.7807C55.0493 87.5112 52.3418 84.7776 48.619 84.7776C44.6879 84.7776 41.9543 87.7194 41.9543 91.3641C41.9543 95.4514 44.9222 97.9767 48.8012 97.9767ZM51.2223 89.9583H46.0416C46.1978 89.0471 46.8747 88.0058 48.619 88.0058C50.4674 88.0058 51.1182 89.0732 51.2223 89.9583ZM65.8718 93.3167V89.4637C66.3665 88.7868 67.4078 88.3182 68.2669 88.3182C69.855 88.3182 71.0525 89.4897 71.0525 91.3641C71.0525 93.2646 69.855 94.4361 68.2669 94.4361C67.4078 94.4361 66.3665 93.9936 65.8718 93.3167ZM65.8718 97.6643V96.2064C66.9132 97.404 68.1888 97.9767 69.5946 97.9767C72.6927 97.9767 75.1398 95.6337 75.1398 91.3641C75.1398 87.2508 72.7447 84.7776 69.5946 84.7776C68.2149 84.7776 66.8611 85.3243 65.8718 86.5739V80.2998H61.8626V97.6643H65.8718ZM78.3373 83.9706C79.6129 83.9706 80.6543 82.9292 80.6543 81.6536C80.6543 80.3779 79.6129 79.3626 78.3373 79.3626C77.0616 79.3626 76.0463 80.3779 76.0463 81.6536C76.0463 82.9292 77.0616 83.9706 78.3373 83.9706ZM80.3419 97.6643V85.09H76.3327V97.6643H80.3419ZM87.5695 102.767C90.6936 102.767 94.7809 101.674 94.7809 96.5709V85.09H90.7717V86.5739C89.7563 85.3243 88.4547 84.7776 87.0488 84.7776C83.8988 84.7776 81.5297 86.9644 81.5297 91.1038C81.5297 95.3473 83.9769 97.456 87.0488 97.456C88.4807 97.456 89.7303 96.8573 90.7717 95.6076V96.5709C90.7717 98.966 88.8972 99.5387 87.5695 99.5387C86.1116 99.5387 84.7318 99.1222 83.7425 98.0808L81.9983 100.892C83.6124 102.22 85.4087 102.767 87.5695 102.767ZM88.3766 93.9154C86.7885 93.9154 85.617 92.9522 85.617 91.1038C85.617 89.2814 86.7885 88.3182 88.3766 88.3182C89.2096 88.3182 90.277 88.7608 90.7717 89.4376V92.796C90.277 93.4729 89.2096 93.9154 88.3766 93.9154ZM102.014 102.767C105.138 102.767 109.226 101.674 109.226 96.5709V85.09H105.216V86.5739C104.201 85.3243 102.899 84.7776 101.493 84.7776C98.3434 84.7776 95.9743 86.9644 95.9743 91.1038C95.9743 95.3473 98.4215 97.456 101.493 97.456C102.925 97.456 104.175 96.8573 105.216 95.6076V96.5709C105.216 98.966 103.342 99.5387 102.014 99.5387C100.556 99.5387 99.1765 99.1222 98.1872 98.0808L96.4429 100.892C98.057 102.22 99.8534 102.767 102.014 102.767ZM102.821 93.9154C101.233 93.9154 100.062 92.9522 100.062 91.1038C100.062 89.2814 101.233 88.3182 102.821 88.3182C103.654 88.3182 104.722 88.7608 105.216 89.4376V92.796C104.722 93.4729 103.654 93.9154 102.821 93.9154ZM117.266 97.9767C119.192 97.9767 121.275 97.43 122.525 96.3106L120.78 93.6811C120.051 94.358 118.594 94.7485 117.708 94.7485C115.886 94.7485 114.845 93.8113 114.558 92.6919H123.514V91.7807C123.514 87.5112 120.806 84.7776 117.084 84.7776C113.153 84.7776 110.419 87.7194 110.419 91.3641C110.419 95.4514 113.387 97.9767 117.266 97.9767ZM119.687 89.9583H114.506C114.662 89.0471 115.339 88.0058 117.084 88.0058C118.932 88.0058 119.583 89.0732 119.687 89.9583ZM128.587 97.6643V89.6459C129.107 88.943 130.487 88.5004 131.528 88.5004C131.945 88.5004 132.283 88.5265 132.518 88.6046V84.7516C131.034 84.7516 129.42 85.6107 128.587 86.626V85.09H124.577V97.6643H128.587ZM143.188 93.3167V89.4637C143.683 88.7868 144.724 88.3182 145.583 88.3182C147.171 88.3182 148.369 89.4897 148.369 91.3641C148.369 93.2646 147.171 94.4361 145.583 94.4361C144.724 94.4361 143.683 93.9936 143.188 93.3167ZM143.188 97.6643V96.2064C144.229 97.404 145.505 97.9767 146.911 97.9767C150.009 97.9767 152.456 95.6337 152.456 91.3641C152.456 87.2508 150.061 84.7776 146.911 84.7776C145.531 84.7776 144.177 85.3243 143.188 86.5739V80.2998H139.179V97.6643H143.188ZM166.145 97.6643V85.09H162.136V93.2125C161.667 93.8113 160.886 94.4361 159.741 94.4361C158.439 94.4361 157.658 93.9154 157.658 92.3795V85.09H153.649V94.0456C153.649 96.3366 154.95 97.9767 157.788 97.9767C159.923 97.9767 161.355 97.0395 162.136 96.1544V97.6643H166.145ZM167.884 102.559C168.301 102.689 169.238 102.767 169.602 102.767C172.023 102.715 173.898 102.116 174.913 99.4606L180.588 85.09H176.345L173.507 93.0563L170.644 85.09H166.426L171.451 97.8465L171.164 98.5234C170.93 99.0441 170.357 99.2263 169.446 99.2263C169.134 99.2263 168.743 99.1482 168.457 98.992L167.884 102.559ZM199.158 97.6643V88.7608C199.158 86.4438 197.856 84.7776 195.018 84.7776C192.883 84.7776 191.4 85.7409 190.645 86.626V85.09H186.635V97.6643H190.645V89.5418C191.113 88.969 191.894 88.3182 193.092 88.3182C194.341 88.3182 195.148 88.8649 195.148 90.4009V97.6643H199.158ZM207.17 97.9767C211.492 97.9767 214.043 94.9047 214.043 91.3641C214.043 87.8236 211.492 84.7776 207.17 84.7776C202.901 84.7776 200.349 87.8236 200.349 91.3641C200.349 94.9047 202.901 97.9767 207.17 97.9767ZM207.17 94.4361C205.452 94.4361 204.463 93.0563 204.463 91.3641C204.463 89.698 205.452 88.3182 207.17 88.3182C208.94 88.3182 209.93 89.698 209.93 91.3641C209.93 93.0563 208.94 94.4361 207.17 94.4361ZM230.709 97.6643L234.432 85.09H230.293L228.288 92.796L225.815 85.09H222.248L219.775 92.796L217.744 85.09H213.631L217.354 97.6643H221.675L224.018 89.8802L226.387 97.6643H230.709ZM248.307 97.9767C251.457 97.9767 253.826 95.6337 253.826 91.3641C253.826 87.1206 251.457 84.7776 248.307 84.7776C246.875 84.7776 245.574 85.3504 244.584 86.5479V85.09H240.575V102.455H244.584V96.1804C245.626 97.43 246.901 97.9767 248.307 97.9767ZM246.979 94.4361C246.12 94.4361 245.079 93.9415 244.584 93.2906V89.4637C245.079 88.7868 246.12 88.3182 246.979 88.3182C248.541 88.3182 249.739 89.4897 249.739 91.3641C249.739 93.2646 248.541 94.4361 246.979 94.4361ZM266.423 97.6643V89.8021C266.423 85.8971 263.585 84.7776 260.565 84.7776C258.639 84.7776 256.478 85.3504 254.864 86.7301L256.348 89.5157C257.363 88.6566 258.613 88.162 259.863 88.162C261.477 88.162 262.414 88.917 262.414 90.0104V91.26C261.659 90.3228 260.175 89.7761 258.509 89.7761C256.582 89.7761 254.187 90.7914 254.187 93.8373C254.187 96.649 256.582 97.9767 258.509 97.9767C260.123 97.9767 261.633 97.3519 262.414 96.4147V97.6643H266.423ZM260.175 95.3473C259.134 95.3473 258.17 94.8787 258.17 93.8894C258.17 92.9001 259.134 92.4315 260.175 92.4315C261.06 92.4315 261.997 92.7179 262.414 93.3167V94.4361C261.997 95.0349 261.06 95.3473 260.175 95.3473ZM268.162 102.559C268.578 102.689 269.515 102.767 269.88 102.767C272.301 102.715 274.175 102.116 275.191 99.4606L280.866 85.09H276.623L273.785 93.0563L270.921 85.09H266.704L271.728 97.8465L271.442 98.5234C271.208 99.0441 270.635 99.2263 269.724 99.2263C269.411 99.2263 269.021 99.1482 268.734 98.992L268.162 102.559ZM290.922 97.6643V80.2998H286.913V97.6643H290.922ZM304.346 97.6643V89.8021C304.346 85.8971 301.508 84.7776 298.488 84.7776C296.562 84.7776 294.401 85.3504 292.787 86.7301L294.271 89.5157C295.286 88.6566 296.536 88.162 297.785 88.162C299.399 88.162 300.337 88.917 300.337 90.0104V91.26C299.582 90.3228 298.098 89.7761 296.432 89.7761C294.505 89.7761 292.11 90.7914 292.11 93.8373C292.11 96.649 294.505 97.9767 296.432 97.9767C298.046 97.9767 299.556 97.3519 300.337 96.4147V97.6643H304.346ZM298.098 95.3473C297.056 95.3473 296.093 94.8787 296.093 93.8894C296.093 92.9001 297.056 92.4315 298.098 92.4315C298.983 92.4315 299.92 92.7179 300.337 93.3167V94.4361C299.92 95.0349 298.983 95.3473 298.098 95.3473ZM311.109 97.9767C312.593 97.9767 313.582 97.6122 314.077 97.1436L313.296 94.1237C313.166 94.2799 312.723 94.4361 312.28 94.4361C311.604 94.4361 311.187 93.8894 311.187 93.1605V88.5525H313.738V85.09H311.187V81.6536H307.178V85.09H305.095V88.5525H307.178V94.2799C307.178 96.7011 308.558 97.9767 311.109 97.9767ZM320.855 97.9767C322.781 97.9767 324.864 97.43 326.114 96.3106L324.369 93.6811C323.64 94.358 322.182 94.7485 321.297 94.7485C319.475 94.7485 318.434 93.8113 318.147 92.6919H327.103V91.7807C327.103 87.5112 324.395 84.7776 320.672 84.7776C316.741 84.7776 314.008 87.7194 314.008 91.3641C314.008 95.4514 316.976 97.9767 320.855 97.9767ZM323.276 89.9583H318.095C318.251 89.0471 318.928 88.0058 320.672 88.0058C322.521 88.0058 323.172 89.0732 323.276 89.9583ZM332.176 97.6643V89.6459C332.696 88.943 334.076 88.5004 335.117 88.5004C335.534 88.5004 335.872 88.5265 336.107 88.6046V84.7516C334.623 84.7516 333.009 85.6107 332.176 86.626V85.09H328.166V97.6643H332.176ZM336.786 97.9507C338.114 97.9507 339.234 96.8312 339.234 95.5035C339.234 94.2018 338.114 93.0824 336.786 93.0824C335.459 93.0824 334.313 94.2018 334.313 95.5035C334.313 96.8312 335.459 97.9507 336.786 97.9507Z" fill="#FF6C00"/>
</svg>
