<svg width="264" height="133" viewBox="0 0 264 133" fill="none" xmlns="http://www.w3.org/2000/svg">
<path d="M168.355 62.4995V50.4168H172.702V46.9112H159.965V50.4168H164.335V62.4995H168.355ZM184.969 62.4995V54.46C184.969 52.38 183.8 50.931 181.229 50.931C179.336 50.931 178.004 51.7957 177.326 52.5903V46.9112H173.727V62.4995H177.326V55.2078C177.747 54.6937 178.448 54.1094 179.5 54.1094C180.645 54.1094 181.369 54.5534 181.369 55.9323V62.4995H184.969ZM192.184 62.78C193.914 62.78 195.783 62.2892 196.905 61.2842L195.339 58.9238C194.685 59.5314 193.376 59.882 192.582 59.882C190.946 59.882 190.011 59.0406 189.754 58.0357H197.793V57.2177C197.793 53.3849 195.363 50.931 192.021 50.931C188.492 50.931 186.038 53.5719 186.038 56.8438C186.038 60.513 188.702 62.78 192.184 62.78ZM194.358 55.5818H189.707C189.847 54.7638 190.455 53.829 192.021 53.829C193.68 53.829 194.264 54.7872 194.358 55.5818ZM164.359 79.5966V76.1377C164.803 75.5301 165.738 75.1094 166.509 75.1094C167.934 75.1094 169.009 76.1611 169.009 77.8438C169.009 79.5498 167.934 80.6015 166.509 80.6015C165.738 80.6015 164.803 80.2042 164.359 79.5966ZM164.359 83.4995V82.1907C165.294 83.2658 166.439 83.78 167.701 83.78C170.482 83.78 172.679 81.6766 172.679 77.8438C172.679 74.1512 170.529 71.931 167.701 71.931C166.462 71.931 165.247 72.4218 164.359 73.5436V67.9112H160.76V83.4995H164.359ZM175.549 71.2065C176.694 71.2065 177.629 70.2716 177.629 69.1265C177.629 67.9813 176.694 67.0698 175.549 67.0698C174.404 67.0698 173.492 67.9813 173.492 69.1265C173.492 70.2716 174.404 71.2065 175.549 71.2065ZM177.349 83.4995V72.2114H173.75V83.4995H177.349ZM183.837 88.0802C186.641 88.0802 190.311 87.0986 190.311 82.5179V72.2114H186.712V73.5436C185.8 72.4218 184.632 71.931 183.37 71.931C180.542 71.931 178.415 73.8941 178.415 77.6101C178.415 81.4195 180.612 83.3125 183.37 83.3125C184.655 83.3125 185.777 82.775 186.712 81.6532V82.5179C186.712 84.6681 185.029 85.1822 183.837 85.1822C182.528 85.1822 181.29 84.8083 180.401 83.8734L178.836 86.3975C180.285 87.5894 181.897 88.0802 183.837 88.0802ZM184.561 80.1341C183.136 80.1341 182.084 79.2694 182.084 77.6101C182.084 75.9741 183.136 75.1094 184.561 75.1094C185.309 75.1094 186.268 75.5067 186.712 76.1143V79.1292C186.268 79.7368 185.309 80.1341 184.561 80.1341ZM196.804 88.0802C199.609 88.0802 203.278 87.0986 203.278 82.5179V72.2114H199.679V73.5436C198.767 72.4218 197.599 71.931 196.337 71.931C193.509 71.931 191.382 73.8941 191.382 77.6101C191.382 81.4195 193.579 83.3125 196.337 83.3125C197.622 83.3125 198.744 82.775 199.679 81.6532V82.5179C199.679 84.6681 197.996 85.1822 196.804 85.1822C195.495 85.1822 194.257 84.8083 193.369 83.8734L191.803 86.3975C193.252 87.5894 194.864 88.0802 196.804 88.0802ZM197.529 80.1341C196.103 80.1341 195.051 79.2694 195.051 77.6101C195.051 75.9741 196.103 75.1094 197.529 75.1094C198.276 75.1094 199.235 75.5067 199.679 76.1143V79.1292C199.235 79.7368 198.276 80.1341 197.529 80.1341ZM210.496 83.78C212.225 83.78 214.095 83.2892 215.217 82.2842L213.651 79.9238C212.996 80.5314 211.688 80.882 210.893 80.882C209.257 80.882 208.322 80.0406 208.065 79.0357H216.105V78.2177C216.105 74.3849 213.674 71.931 210.332 71.931C206.803 71.931 204.349 74.5719 204.349 77.8438C204.349 81.513 207.013 83.78 210.496 83.78ZM212.669 76.5818H208.018C208.159 75.7638 208.766 74.829 210.332 74.829C211.991 74.829 212.576 75.7872 212.669 76.5818ZM220.659 83.4995V76.3013C221.126 75.6703 222.365 75.273 223.299 75.273C223.673 75.273 223.977 75.2964 224.188 75.3665V71.9076C222.855 71.9076 221.406 72.6788 220.659 73.5903V72.2114H217.059V83.4995H220.659ZM164.359 100.597V97.1377C164.803 96.5301 165.738 96.1094 166.509 96.1094C167.934 96.1094 169.009 97.1611 169.009 98.8438C169.009 100.55 167.934 101.602 166.509 101.602C165.738 101.602 164.803 101.204 164.359 100.597ZM164.359 104.5V103.191C165.294 104.266 166.439 104.78 167.701 104.78C170.482 104.78 172.679 102.677 172.679 98.8438C172.679 95.1512 170.529 92.931 167.701 92.931C166.462 92.931 165.247 93.4218 164.359 94.5436V88.9112H160.76V104.5H164.359ZM184.968 104.5V93.2114H181.368V100.503C180.948 101.041 180.247 101.602 179.218 101.602C178.05 101.602 177.349 101.134 177.349 99.7552V93.2114H173.75V101.251C173.75 103.308 174.918 104.78 177.465 104.78C179.382 104.78 180.667 103.939 181.368 103.144V104.5H184.968ZM186.529 108.893C186.903 109.01 187.744 109.08 188.071 109.08C190.245 109.033 191.927 108.496 192.839 106.112L197.934 93.2114H194.124L191.577 100.363L189.006 93.2114H185.22L189.73 104.663L189.473 105.271C189.263 105.738 188.749 105.902 187.931 105.902C187.65 105.902 187.3 105.832 187.043 105.691L186.529 108.893ZM214.603 104.5V96.5067C214.603 94.4267 213.435 92.931 210.887 92.931C208.971 92.931 207.639 93.7957 206.961 94.5903V93.2114H203.362V104.5H206.961V97.2078C207.382 96.6937 208.083 96.1094 209.158 96.1094C210.28 96.1094 211.004 96.6002 211.004 97.9791V104.5H214.603ZM221.796 104.78C225.676 104.78 227.966 102.022 227.966 98.8438C227.966 95.6654 225.676 92.931 221.796 92.931C217.963 92.931 215.673 95.6654 215.673 98.8438C215.673 102.022 217.963 104.78 221.796 104.78ZM221.796 101.602C220.254 101.602 219.366 100.363 219.366 98.8438C219.366 97.3481 220.254 96.1094 221.796 96.1094C223.385 96.1094 224.274 97.3481 224.274 98.8438C224.274 100.363 223.385 101.602 221.796 101.602ZM242.927 104.5L246.269 93.2114H242.553L240.754 100.129L238.534 93.2114H235.332L233.112 100.129L231.289 93.2114H227.596L230.938 104.5H234.818L236.921 97.5116L239.048 104.5H242.927ZM167.701 125.78C170.529 125.78 172.655 123.677 172.655 119.844C172.655 116.034 170.529 113.931 167.701 113.931C166.415 113.931 165.247 114.445 164.359 115.52V114.211H160.76V129.8H164.359V124.167C165.294 125.289 166.439 125.78 167.701 125.78ZM166.509 122.602C165.738 122.602 164.803 122.157 164.359 121.573V118.138C164.803 117.53 165.738 117.109 166.509 117.109C167.911 117.109 168.986 118.161 168.986 119.844C168.986 121.55 167.911 122.602 166.509 122.602ZM183.964 125.5V118.442C183.964 114.936 181.416 113.931 178.705 113.931C176.976 113.931 175.036 114.445 173.587 115.684L174.919 118.184C175.831 117.413 176.952 116.969 178.074 116.969C179.523 116.969 180.365 117.647 180.365 118.629V119.75C179.687 118.909 178.355 118.418 176.859 118.418C175.129 118.418 172.979 119.33 172.979 122.064C172.979 124.588 175.129 125.78 176.859 125.78C178.308 125.78 179.663 125.219 180.365 124.378V125.5H183.964ZM178.355 123.42C177.42 123.42 176.555 122.999 176.555 122.111C176.555 121.223 177.42 120.802 178.355 120.802C179.149 120.802 179.991 121.059 180.365 121.597V122.602C179.991 123.139 179.149 123.42 178.355 123.42ZM185.524 129.893C185.898 130.01 186.74 130.08 187.067 130.08C189.24 130.033 190.923 129.496 191.834 127.112L196.929 114.211H193.12L190.572 121.363L188.002 114.211H184.216L188.726 125.663L188.469 126.271C188.259 126.738 187.745 126.902 186.927 126.902C186.646 126.902 186.296 126.832 186.039 126.691L185.524 129.893ZM205.957 125.5V109.911H202.358V125.5H205.957ZM218.007 125.5V118.442C218.007 114.936 215.46 113.931 212.749 113.931C211.02 113.931 209.08 114.445 207.631 115.684L208.963 118.184C209.874 117.413 210.996 116.969 212.118 116.969C213.567 116.969 214.408 117.647 214.408 118.629V119.75C213.731 118.909 212.398 118.418 210.903 118.418C209.173 118.418 207.023 119.33 207.023 122.064C207.023 124.588 209.173 125.78 210.903 125.78C212.352 125.78 213.707 125.219 214.408 124.378V125.5H218.007ZM212.398 123.42C211.464 123.42 210.599 122.999 210.599 122.111C210.599 121.223 211.464 120.802 212.398 120.802C213.193 120.802 214.034 121.059 214.408 121.597V122.602C214.034 123.139 213.193 123.42 212.398 123.42ZM224.079 125.78C225.411 125.78 226.299 125.453 226.743 125.032L226.042 122.321C225.925 122.461 225.528 122.602 225.13 122.602C224.523 122.602 224.149 122.111 224.149 121.456V117.32H226.439V114.211H224.149V111.126H220.55V114.211H218.68V117.32H220.55V122.461C220.55 124.635 221.788 125.78 224.079 125.78ZM232.828 125.78C234.557 125.78 236.427 125.289 237.548 124.284L235.983 121.924C235.328 122.531 234.019 122.882 233.225 122.882C231.589 122.882 230.654 122.041 230.397 121.036H238.437V120.218C238.437 116.385 236.006 113.931 232.664 113.931C229.135 113.931 226.681 116.572 226.681 119.844C226.681 123.513 229.345 125.78 232.828 125.78ZM235.001 118.582H230.35C230.491 117.764 231.098 116.829 232.664 116.829C234.323 116.829 234.908 117.787 235.001 118.582ZM242.99 125.5V118.301C243.458 117.67 244.696 117.273 245.631 117.273C246.005 117.273 246.309 117.296 246.519 117.366V113.908C245.187 113.908 243.738 114.679 242.99 115.59V114.211H239.391V125.5H242.99ZM247.13 125.757C248.321 125.757 249.326 124.752 249.326 123.56C249.326 122.391 248.321 121.386 247.13 121.386C245.938 121.386 244.909 122.391 244.909 123.56C244.909 124.752 245.938 125.757 247.13 125.757Z" fill="#777777"/>
<path d="M134.046 83.1877V126.077H72.109C71.7203 126.077 71.3963 126.077 71.0076 126.077C36.2165 126.077 7.96892 97.8945 7.96892 63.0386C7.96892 57.6612 8.68158 52.4134 9.91255 47.36C11.1435 40.4925 5.63655 29.4785 0 22.2223C9.1351 23.2589 22.4814 22.5462 26.5631 18.3998C37.9657 6.99709 53.7092 0 71.0724 0C87.6581 0 102.754 6.414 113.962 16.9096L114.869 18.335L72.5625 60.7063C71.5907 61.6781 71.5907 63.1682 72.5625 64.14C73.016 64.5936 73.6639 64.8527 74.3118 64.8527C74.9596 64.8527 75.5427 64.5936 76.061 64.14L136.703 3.49855C156.722 26.4335 155.88 61.2894 134.046 83.1877ZM44.7037 38.6136C49.6276 38.6136 53.5796 34.6615 53.5796 29.7377C53.5796 24.8138 49.6276 20.8617 44.7037 20.8617C43.0192 20.8617 41.5291 21.3152 40.1685 22.0927C40.2333 22.0927 40.2981 22.0927 40.3629 22.0927C43.0192 22.0927 45.1572 24.2307 45.1572 26.887C45.1572 29.5433 43.0192 31.7461 40.3629 31.7461C38.3545 31.7461 36.6052 30.5151 35.8925 28.7658C35.8925 28.8306 35.8925 28.8954 35.8925 28.9602C35.8925 29.1546 35.8277 29.4137 35.8277 29.6081C35.8277 30.9038 36.0869 32.1348 36.5404 33.2362C37.9657 36.4108 41.0756 38.6136 44.7037 38.6136ZM62.6499 102.689C62.6499 99.8382 60.9007 97.8298 57.143 97.8298C54.3571 97.8298 52.4134 98.9959 51.3768 100.097V92.258H46.0642V113.832H51.3768V103.725C52.0247 103.013 53.0613 102.235 54.5514 102.235C56.2359 102.235 57.2725 102.818 57.2725 104.762V113.832H62.5851V102.689H62.6499ZM80.4018 98.2185H75.0892V108.325C74.4413 109.038 73.4695 109.816 71.9146 109.816C70.1653 109.816 69.1935 109.168 69.1935 107.289V98.2185H63.8809V109.362C63.8809 112.213 65.5654 114.221 69.3231 114.221C72.109 114.221 74.0526 113.055 75.0892 111.954V113.832H80.4018V98.2185ZM128.928 102.494C128.928 99.3199 126.984 97.8298 123.939 97.8298C121.348 97.8298 119.145 99.2551 118.173 100.616C117.461 98.8016 115.841 97.8298 113.444 97.8298C110.917 97.8298 108.909 99.1255 108.066 100.033C108.001 99.9678 108.001 99.903 107.937 99.8382V99.7734H107.872C107.094 98.4128 105.54 97.765 103.531 97.765C102.883 97.765 102.235 97.8298 101.652 98.0241C99.6439 98.4128 98.0242 99.579 97.2467 100.68C96.534 98.8664 94.9143 97.8946 92.5172 97.8946C89.9257 97.8946 87.7877 99.2551 87.075 100.162V98.2833H81.7624V113.897H87.075V103.79C87.5933 103.142 88.6299 102.3 90.0552 102.3C91.6749 102.3 92.258 103.207 92.258 104.373V113.897H97.5706V103.79C98.0889 103.142 99.1255 102.3 100.551 102.3C101.847 102.3 102.495 102.883 102.689 103.725V113.897H108.066V103.661C108.649 103.013 109.621 102.171 110.982 102.171C112.601 102.171 113.185 103.078 113.185 104.244V113.768H118.497V103.661C119.015 103.013 120.052 102.171 121.477 102.171C123.032 102.171 123.68 103.078 123.68 104.244V113.768H128.928V102.494Z" fill="#777777"/>
<path d="M155.735 10.8143L154.774 9.0839C155.219 8.92852 155.714 8.49064 155.714 7.67137C155.714 6.79559 155.12 6.10345 154.075 6.10345H151.716V10.8143H152.931V9.23222H153.553L154.344 10.8143H155.735ZM153.892 8.17282H152.931V7.16285H153.892C154.216 7.16285 154.478 7.33942 154.478 7.6643C154.478 7.99625 154.216 8.17282 153.892 8.17282Z" fill="#777777"/>
<path fill-rule="evenodd" clip-rule="evenodd" d="M157.397 4.60165C156.37 3.57418 154.98 3 153.499 3C152.019 3 150.629 3.57418 149.601 4.60165C148.574 5.62912 148 7.01923 148 8.5C148 9.98077 148.574 11.3709 149.601 12.3984C150.629 13.4258 152.019 14 153.499 14C154.98 14 156.37 13.4258 157.397 12.3984C158.425 11.3709 158.999 9.98077 158.999 8.5C159.029 7.04945 158.455 5.65934 157.397 4.60165ZM149.39 8.53022C149.39 10.7967 151.233 12.6401 153.499 12.6401C155.766 12.6401 157.609 10.7967 157.609 8.53022C157.609 6.26374 155.766 4.42033 153.499 4.42033C151.233 4.42033 149.39 6.26374 149.39 8.53022Z" fill="#777777"/>
</svg>
