<svg width="235" height="164" viewBox="0 0 235 164" fill="none" xmlns="http://www.w3.org/2000/svg">
<path d="M173.583 83.7623V126.948H111.218C110.826 126.948 110.5 126.948 110.109 126.948C75.0771 126.948 46.6345 98.5708 46.6345 63.4741C46.6345 58.0595 47.3521 52.7755 48.5915 47.6871C49.831 40.7722 44.286 29.6821 38.6105 22.3758C47.8087 23.4195 61.2472 22.7019 65.357 18.5269C76.8385 7.04543 92.6907 0 110.174 0C126.874 0 142.074 6.45831 153.36 17.0265L154.273 18.4616L111.674 61.1256C110.696 62.1041 110.696 63.6046 111.674 64.5831C112.131 65.0397 112.783 65.3007 113.436 65.3007C114.088 65.3007 114.675 65.0397 115.197 64.5831L176.257 3.52271C196.415 26.6161 195.567 61.7127 173.583 83.7623ZM83.623 38.8803C88.5809 38.8803 92.5602 34.901 92.5602 29.9431C92.5602 24.9852 88.5809 21.0058 83.623 21.0058C81.9268 21.0058 80.4264 21.4625 79.0565 22.2453C79.1217 22.2453 79.187 22.2453 79.2522 22.2453C81.9268 22.2453 84.0796 24.3981 84.0796 27.0727C84.0796 29.7474 81.9268 31.9654 79.2522 31.9654C77.2299 31.9654 75.4685 30.7259 74.7509 28.9645C74.7509 29.0298 74.7509 29.095 74.7509 29.1602C74.7509 29.356 74.6857 29.6169 74.6857 29.8126C74.6857 31.1173 74.9467 32.3568 75.4033 33.4658C76.8385 36.6623 79.9698 38.8803 83.623 38.8803ZM101.693 103.398C101.693 100.528 99.9318 98.5055 96.1482 98.5055C93.3431 98.5055 91.386 99.6798 90.3422 100.789V92.8953H84.9929V114.619H90.3422V104.442C90.9946 103.724 92.0383 102.942 93.5388 102.942C95.2349 102.942 96.2786 103.529 96.2786 105.486V114.619H101.628V103.398H101.693ZM119.568 98.8969H114.218V109.074C113.566 109.791 112.588 110.574 111.022 110.574C109.261 110.574 108.282 109.922 108.282 108.03V98.8969H102.933V110.117C102.933 112.988 104.629 115.01 108.412 115.01C111.218 115.01 113.175 113.836 114.218 112.727V114.619H119.568V98.8969ZM168.429 103.202C168.429 100.006 166.472 98.5055 163.406 98.5055C160.797 98.5055 158.579 99.9407 157.6 101.311C156.882 99.4841 155.252 98.5055 152.838 98.5055C150.294 98.5055 148.271 99.8102 147.423 100.724C147.358 100.658 147.358 100.593 147.293 100.528V100.463H147.228C146.445 99.0926 144.879 98.4403 142.857 98.4403C142.204 98.4403 141.552 98.5055 140.965 98.7012C138.943 99.0926 137.312 100.267 136.529 101.376C135.811 99.5493 134.18 98.5708 131.767 98.5708C129.157 98.5708 127.005 99.9407 126.287 100.854V98.9622H120.938V114.684H126.287V104.507C126.809 103.855 127.853 103.007 129.288 103.007C130.919 103.007 131.506 103.92 131.506 105.094V114.684H136.855V104.507C137.377 103.855 138.421 103.007 139.856 103.007C141.161 103.007 141.813 103.594 142.009 104.442V114.684H147.423V104.377C148.01 103.724 148.989 102.876 150.359 102.876C151.99 102.876 152.577 103.79 152.577 104.964V114.553H157.926V104.377C158.448 103.724 159.492 102.876 160.927 102.876C162.493 102.876 163.145 103.79 163.145 104.964V114.553H168.429V103.202Z" fill="#777777"/>
<path d="M195.421 10.889L194.454 9.14666C194.902 8.99021 195.4 8.54929 195.4 7.72436C195.4 6.84254 194.802 6.14561 193.75 6.14561H191.375V10.889H192.598V9.296H193.224L194.02 10.889H195.421ZM193.565 8.22928H192.598V7.21234H193.565C193.892 7.21234 194.155 7.39012 194.155 7.71725C194.155 8.05149 193.892 8.22928 193.565 8.22928Z" fill="#777777"/>
<path fill-rule="evenodd" clip-rule="evenodd" d="M197.095 4.63344C196.061 3.59887 194.661 3.02073 193.17 3.02073C191.679 3.02073 190.28 3.59887 189.245 4.63344C188.211 5.66801 187.633 7.06772 187.633 8.55872C187.633 10.0497 188.211 11.4494 189.245 12.484C190.28 13.5186 191.679 14.0967 193.17 14.0967C194.661 14.0967 196.061 13.5186 197.095 12.484C198.13 11.4494 198.708 10.0497 198.708 8.55872C198.738 7.09815 198.16 5.69844 197.095 4.63344ZM189.032 8.58915C189.032 10.8713 190.888 12.7274 193.17 12.7274C195.452 12.7274 197.308 10.8713 197.308 8.58915C197.308 6.30701 195.452 4.45087 193.17 4.45087C190.888 4.45087 189.032 6.30701 189.032 8.58915Z" fill="#777777"/>
<path d="M80.6563 147.96V140.319H83.4054V138.102H75.3503V140.319H78.1142V147.96H80.6563ZM93.2764 147.96V138.102H90.7342V141.782H86.6402V138.102H84.0981V147.96H86.6402V143.999H90.7342V147.96H93.2764ZM101.763 147.96V145.743H97.0779V144.073H101.66V141.856H97.0779V140.319H101.763V138.102H94.5358V147.96H101.763ZM111.75 147.96C113.686 147.96 114.647 146.719 114.647 145.285C114.647 144.044 113.819 143.038 112.77 142.876C113.701 142.669 114.455 141.841 114.455 140.615C114.455 139.373 113.539 138.102 111.573 138.102H105.986V147.96H111.75ZM110.997 141.856H108.528V140.319H110.997C111.514 140.319 111.869 140.615 111.869 141.088C111.869 141.575 111.514 141.856 110.997 141.856ZM111.085 145.743H108.528V144.073H111.085C111.706 144.073 112.061 144.413 112.061 144.901C112.061 145.433 111.691 145.743 111.085 145.743ZM118.057 147.96V138.102H115.515V147.96H118.057ZM124.146 148.138C126.008 148.138 127.457 147.384 128.506 146.216V142.299H123.747V144.531H125.964V145.3C125.609 145.595 124.87 145.891 124.146 145.891C122.535 145.891 121.397 144.649 121.397 143.038C121.397 141.413 122.535 140.186 124.146 140.186C125.107 140.186 125.86 140.792 126.23 141.442L128.358 140.334C127.678 139.107 126.348 137.939 124.146 137.939C121.205 137.939 118.81 139.905 118.81 143.038C118.81 146.172 121.205 148.138 124.146 148.138ZM134.309 148.138C136.172 148.138 137.62 147.384 138.669 146.216V142.299H133.91V144.531H136.127V145.3C135.773 145.595 135.034 145.891 134.309 145.891C132.698 145.891 131.56 144.649 131.56 143.038C131.56 141.413 132.698 140.186 134.309 140.186C135.27 140.186 136.024 140.792 136.393 141.442L138.522 140.334C137.842 139.107 136.512 137.939 134.309 137.939C131.368 137.939 128.974 139.905 128.974 143.038C128.974 146.172 131.368 148.138 134.309 148.138ZM146.867 147.96V145.743H142.182V144.073H146.764V141.856H142.182V140.319H146.867V138.102H139.64V147.96H146.867ZM156.236 147.96L154.226 144.339C155.157 144.014 156.191 143.098 156.191 141.383C156.191 139.55 154.95 138.102 152.762 138.102H147.826V147.96H150.368V144.649H151.669L153.324 147.96H156.236ZM152.378 142.433H150.368V140.319H152.378C153.058 140.319 153.605 140.688 153.605 141.368C153.605 142.063 153.058 142.433 152.378 142.433ZM51.7042 160.96C53.6403 160.96 54.601 159.719 54.601 158.285C54.601 157.044 53.7733 156.038 52.724 155.876C53.6551 155.669 54.4089 154.841 54.4089 153.615C54.4089 152.373 53.4925 151.102 51.5268 151.102H45.94V160.96H51.7042ZM50.9504 154.856H48.4821V153.319H50.9504C51.4677 153.319 51.8224 153.615 51.8224 154.088C51.8224 154.575 51.4677 154.856 50.9504 154.856ZM51.0391 158.743H48.4821V157.073H51.0391C51.6598 157.073 52.0145 157.413 52.0145 157.901C52.0145 158.433 51.645 158.743 51.0391 158.743ZM60.1388 161.138C63.3017 161.138 64.7797 159.408 64.7797 156.955V151.102H62.208V156.881C62.208 158.049 61.4986 158.891 60.1388 158.891C58.7643 158.891 58.0549 158.049 58.0549 156.881V151.102H55.4684V156.97C55.4684 159.394 56.9759 161.138 60.1388 161.138ZM71.2681 160.96V156.984L74.9926 151.102H72.1105L69.997 154.738L67.8539 151.102H64.9866L68.7259 156.984V160.96H71.2681ZM87.6314 160.96V151.102H85.0745V156.526L81.0839 151.102H78.4678V160.96H81.01V155.255L85.1779 160.96H87.6314ZM93.665 161.138C96.6801 161.138 98.9267 159.039 98.9267 156.038C98.9267 153.038 96.6801 150.939 93.665 150.939C90.6499 150.939 88.3886 153.038 88.3886 156.038C88.3886 159.039 90.6499 161.138 93.665 161.138ZM93.665 158.891C92.0392 158.891 90.9751 157.635 90.9751 156.038C90.9751 154.427 92.0392 153.186 93.665 153.186C95.2908 153.186 96.3402 154.427 96.3402 156.038C96.3402 157.635 95.2908 158.891 93.665 158.891ZM109.614 160.96L112.437 151.102H109.57L108.092 157.679L106.407 151.102H104.456L102.771 157.679L101.278 151.102H98.4255L101.248 160.96H103.938L105.431 154.782L106.924 160.96H109.614ZM118.517 160.96V157.649H120.912C123.129 157.649 124.341 156.157 124.341 154.383C124.341 152.595 123.129 151.102 120.912 151.102H115.975V160.96H118.517ZM120.527 155.433H118.517V153.319H120.527C121.207 153.319 121.754 153.703 121.754 154.383C121.754 155.048 121.207 155.433 120.527 155.433ZM133.464 160.96L129.755 151.102H126.547L122.838 160.96H125.72L126.208 159.541H130.095L130.582 160.96H133.464ZM129.4 157.324H126.902L128.158 153.615L129.4 157.324ZM137.897 160.96V156.984L141.622 151.102H138.739L136.626 154.738L134.483 151.102H131.616L135.355 156.984V160.96H137.897ZM151.556 160.96V158.743H147.595V151.102H145.052V160.96H151.556ZM161.922 160.96L158.212 151.102H155.005L151.295 160.96H154.177L154.665 159.541H158.552L159.04 160.96H161.922ZM157.858 157.324H155.36L156.616 153.615L157.858 157.324ZM165.968 160.96V153.319H168.717V151.102H160.662V153.319H163.426V160.96H165.968ZM176.637 160.96V158.743H171.952V157.073H176.534V154.856H171.952V153.319H176.637V151.102H169.41V160.96H176.637ZM186.006 160.96L183.995 157.339C184.927 157.014 185.961 156.098 185.961 154.383C185.961 152.55 184.72 151.102 182.532 151.102H177.596V160.96H180.138V157.649H181.439L183.094 160.96H186.006ZM182.148 155.433H180.138V153.319H182.148C182.828 153.319 183.375 153.688 183.375 154.368C183.375 155.063 182.828 155.433 182.148 155.433ZM187.958 161.123C188.712 161.123 189.348 160.487 189.348 159.733C189.348 158.994 188.712 158.359 187.958 158.359C187.205 158.359 186.554 158.994 186.554 159.733C186.554 160.487 187.205 161.123 187.958 161.123Z" fill="#777777"/>
</svg>
