<svg width="152" height="126" viewBox="0 0 152 126" fill="none" xmlns="http://www.w3.org/2000/svg">
<path fill-rule="evenodd" clip-rule="evenodd" d="M75.9536 64.1531L136.561 3.54591C156.674 26.4262 155.838 61.2895 134.034 83.1608V126H72.1098V125.99C71.9272 125.99 71.747 125.993 71.5669 125.995C71.3867 125.998 71.2065 126 71.0239 126C36.2279 126 8.02395 97.7961 8.02395 63C8.02395 57.5994 8.70622 52.3623 9.98429 47.3557C11.1663 40.4849 5.6504 29.4436 0 22.1884C9.12904 23.2358 22.4671 22.5343 26.5607 18.3734C37.9576 7.02456 53.6788 0 71.0335 0C87.6196 0 102.697 6.42877 113.94 16.9031L114.872 18.3542L72.5134 60.7129C71.5621 61.6643 71.5621 63.2018 72.5134 64.1531C72.9843 64.624 73.6089 64.8642 74.2335 64.8642C74.8581 64.8642 75.4827 64.624 75.9536 64.1531ZM36.5736 33.2466C37.9382 36.4081 41.0709 38.6183 44.7225 38.6183C49.6233 38.6183 53.5921 34.6399 53.5825 29.7487C53.5825 24.8478 49.6137 20.8791 44.7129 20.8791C43.0601 20.8791 41.5225 21.3404 40.1964 22.1284C40.2252 22.1284 40.2541 22.1235 40.2829 22.1187C40.3117 22.1139 40.3406 22.1091 40.3694 22.1091C43.0216 22.1091 45.1741 24.2617 45.1741 26.9139C45.1741 29.5661 43.0216 31.7186 40.3694 31.7186C38.3514 31.7186 36.6313 30.479 35.9202 28.7205C35.9202 28.7602 35.915 28.7974 35.9101 28.8333C35.9054 28.8669 35.901 28.8994 35.901 28.9319C35.8817 29.1529 35.8721 29.3739 35.8625 29.5949C35.8721 30.8826 36.1316 32.1126 36.5736 33.2466Z" fill="#777777"/>
</svg>
